# xmcd CD database file
#
# Track frame offsets:
#	150
#	16425
#	25050
#	39637
#	53537
#	63225
#	78787
#	96600
#	108950
#	122350
#	134862
#	144762
#
# Disc length: 2048 seconds
#
# Revision: 0
# Processed by: cddbd v1.5.2PL0 Copyright (c) Steve Scherf et al.
# Submitted via: CDex 1.51
#
DISCID=9707fe0c
DTITLE=Magic Sam - Blues Classics
DYEAR=1969
DGENRE=Blues
TTITLE0=Sometimes
TTITLE1=Back Door Friend
TTITLE2=Feeling Good
TTITLE3=All Your Fault
TTITLE4=Looking Good
TTITLE5=Easy Baby
TTITLE6=Torturing My Soul
TTITLE7=All Your Love
TTITLE8=Trying To Make It
TTITLE9=High Heel Sneakers
TTITLE10=Call Me If You Need Me
TTITLE11=Look Out Sam
EXTD=YEAR: 1969
EXTT0=
EXTT1=
EXTT2=
EXTT3=
EXTT4=
EXTT5=
EXTT6=
EXTT7=
EXTT8=
EXTT9=
EXTT10=
EXTT11=
PLAYORDER=
